<svg width="900" height="1200" viewBox="0 0 900 1200" fill="none" xmlns="http://www.w3.org/2000/svg">
  <defs>
    <linearGradient id="bg" x1="0" y1="0" x2="900" y2="1200" gradientUnits="userSpaceOnUse">
      <stop stop-color="#0B0B0B"/>
      <stop offset="0.5" stop-color="#141414"/>
      <stop offset="1" stop-color="#000000"/>
    </linearGradient>
    <radialGradient id="glow" cx="0" cy="0" r="1" gradientUnits="userSpaceOnUse" gradientTransform="translate(650 380) rotate(35) scale(380 280)">
      <stop stop-color="#D4AF37" stop-opacity="0.25"/>
      <stop offset="1" stop-color="#D4AF37" stop-opacity="0"/>
    </radialGradient>
    <filter id="grain" x="-20%" y="-20%" width="140%" height="140%">
      <feTurbulence type="fractalNoise" baseFrequency="0.8" numOctaves="2" stitchTiles="stitch"/>
      <feColorMatrix type="matrix" values="
        0 0 0 0 0
        0 0 0 0 0
        0 0 0 0 0
        0 0 0 0.22 0"/>
    </filter>
  </defs>

  <rect width="900" height="1200" fill="url(#bg)"/>
  <rect width="900" height="1200" fill="url(#glow)"/>
  <rect width="900" height="1200" filter="url(#grain)"/>

  <!-- Stylized silhouette -->
  <path d="M320 1010C340 860 305 760 230 690C170 634 150 560 165 505C190 412 280 372 360 355C400 300 455 270 520 270C610 270 688 328 710 420C728 495 708 585 650 642C580 708 560 800 575 1010H320Z" fill="#0F0F0F" stroke="#FFFFFF" stroke-opacity="0.08" stroke-width="2"/>

  <path d="M390 505C415 468 455 448 505 448C570 448 625 492 640 554C655 617 612 678 548 704C505 722 448 716 410 686C372 655 355 577 390 505Z" fill="#101010"/>
  <path d="M404 520C430 494 462 480 503 480C562 480 607 520 617 566C625 604 607 640 575 664" stroke="#D4AF37" stroke-opacity="0.28" stroke-width="6" stroke-linecap="round"/>

  <rect x="150" y="150" width="600" height="900" rx="36" stroke="#D4AF37" stroke-opacity="0.18"/>
</svg>

