<svg width="800" height="1000" viewBox="0 0 800 1000" fill="none" xmlns="http://www.w3.org/2000/svg">
  <defs>
    <linearGradient id="bg" x1="0" y1="0" x2="800" y2="1000" gradientUnits="userSpaceOnUse">
      <stop stop-color="#070707" />
      <stop offset="0.6" stop-color="#141414" />
      <stop offset="1" stop-color="#0A0A0A" />
    </linearGradient>
    <radialGradient id="gold" cx="0" cy="0" r="1" gradientUnits="userSpaceOnUse" gradientTransform="translate(260 360) rotate(35) scale(520 460)">
      <stop stop-color="#D4AF37" stop-opacity="0.28" />
      <stop offset="1" stop-color="#D4AF37" stop-opacity="0" />
    </radialGradient>
    <linearGradient id="steel" x1="120" y1="120" x2="720" y2="820" gradientUnits="userSpaceOnUse">
      <stop stop-color="#F5F1E8" stop-opacity="0.18" />
      <stop offset="0.5" stop-color="#F5F1E8" stop-opacity="0.05" />
      <stop offset="1" stop-color="#F5F1E8" stop-opacity="0.02" />
    </linearGradient>
  </defs>

  <rect width="800" height="1000" fill="url(#bg)" />
  <rect width="800" height="1000" fill="url(#gold)" />

  <g opacity="0.9">
    <rect x="150" y="215" width="500" height="110" rx="26" fill="#0E0E0E" stroke="url(#steel)" stroke-width="2" />
    <rect x="210" y="255" width="380" height="30" rx="15" fill="#D4AF37" fill-opacity="0.18" />

    <path d="M250 520C310 455 378 420 450 420C535 420 610 470 665 560C600 655 525 705 450 705C370 705 295 650 250 520Z" fill="#0D0D0D" stroke="url(#steel)" stroke-width="2" />
    <path d="M350 520C376 484 410 466 450 466C494 466 532 490 560 532C528 570 492 590 450 590C410 590 376 570 350 520Z" fill="#D4AF37" fill-opacity="0.22" />
  </g>

  <g opacity="0.32">
    <path d="M70 880C170 835 280 820 400 836C520 852 630 842 730 806" stroke="#F5F1E8" stroke-opacity="0.22" stroke-width="2" />
    <path d="M40 820C165 770 295 760 430 792C565 824 690 820 800 780" stroke="#D4AF37" stroke-opacity="0.3" stroke-width="2" />
  </g>
</svg>
