<svg width="800" height="1000" viewBox="0 0 800 1000" fill="none" xmlns="http://www.w3.org/2000/svg">
  <defs>
    <linearGradient id="bg" x1="0" y1="0" x2="800" y2="1000" gradientUnits="userSpaceOnUse">
      <stop stop-color="#0B0B0B" />
      <stop offset="0.55" stop-color="#111111" />
      <stop offset="1" stop-color="#050505" />
    </linearGradient>
    <radialGradient id="glow" cx="0" cy="0" r="1" gradientUnits="userSpaceOnUse" gradientTransform="translate(530 360) rotate(120) scale(520 420)">
      <stop stop-color="#D4AF37" stop-opacity="0.32" />
      <stop offset="1" stop-color="#D4AF37" stop-opacity="0" />
    </radialGradient>
    <linearGradient id="rim" x1="120" y1="620" x2="680" y2="860" gradientUnits="userSpaceOnUse">
      <stop stop-color="#F5F1E8" stop-opacity="0.18" />
      <stop offset="1" stop-color="#F5F1E8" stop-opacity="0.02" />
    </linearGradient>
  </defs>

  <rect width="800" height="1000" fill="url(#bg)" />
  <rect width="800" height="1000" fill="url(#glow)" />

  <g opacity="0.9">
    <path d="M140 760C220 650 320 600 420 610C540 622 640 720 700 850C605 910 520 940 420 940C300 940 200 890 140 760Z" fill="#0A0A0A" />
    <path d="M160 770C238 675 332 634 420 642C528 651 618 736 675 845C590 895 510 920 420 920C312 920 218 880 160 770Z" fill="url(#rim)" />
    <circle cx="410" cy="770" r="98" fill="#0E0E0E" />
    <circle cx="420" cy="770" r="74" fill="#141414" />
    <path d="M350 758C372 728 404 712 440 716C476 720 504 742 520 770C488 800 456 816 420 816C386 816 360 796 350 758Z" fill="#D4AF37" fill-opacity="0.22" />
  </g>

  <g opacity="0.35">
    <path d="M70 210C180 170 280 166 370 200C460 234 540 240 610 210C680 180 735 175 770 196" stroke="#F5F1E8" stroke-opacity="0.25" stroke-width="2" />
    <path d="M30 280C160 240 280 240 390 276C500 312 600 316 690 286C740 269 775 268 800 280" stroke="#D4AF37" stroke-opacity="0.32" stroke-width="2" />
  </g>
</svg>
