<svg width="800" height="1000" viewBox="0 0 800 1000" fill="none" xmlns="http://www.w3.org/2000/svg">
  <defs>
    <linearGradient id="bg" x1="0" y1="0" x2="800" y2="1000" gradientUnits="userSpaceOnUse">
      <stop stop-color="#050505" />
      <stop offset="0.55" stop-color="#111111" />
      <stop offset="1" stop-color="#070707" />
    </linearGradient>
    <radialGradient id="gold" cx="0" cy="0" r="1" gradientUnits="userSpaceOnUse" gradientTransform="translate(520 620) rotate(25) scale(600 520)">
      <stop stop-color="#D4AF37" stop-opacity="0.22" />
      <stop offset="1" stop-color="#D4AF37" stop-opacity="0" />
    </radialGradient>
    <linearGradient id="glass" x1="260" y1="280" x2="540" y2="860" gradientUnits="userSpaceOnUse">
      <stop stop-color="#F5F1E8" stop-opacity="0.16" />
      <stop offset="0.5" stop-color="#F5F1E8" stop-opacity="0.04" />
      <stop offset="1" stop-color="#F5F1E8" stop-opacity="0.02" />
    </linearGradient>
  </defs>

  <rect width="800" height="1000" fill="url(#bg)" />
  <rect width="800" height="1000" fill="url(#gold)" />

  <g opacity="0.9">
    <path d="M310 250C310 190 350 160 400 160C450 160 490 190 490 250V300H310V250Z" fill="#0D0D0D" stroke="url(#glass)" stroke-width="2" />
    <path d="M330 300H470L450 520C444 592 430 700 400 700C370 700 356 592 350 520L330 300Z" fill="#101010" stroke="url(#glass)" stroke-width="2" />
    <path d="M352 520C370 640 382 680 400 680C418 680 430 640 448 520H352Z" fill="#D4AF37" fill-opacity="0.18" />

    <path d="M220 760C290 700 350 670 400 670C455 670 515 703 585 770C522 845 460 885 400 885C338 885 278 845 220 760Z" fill="#0B0B0B" />
  </g>

  <g opacity="0.28">
    <path d="M70 120C210 90 330 98 430 144C530 190 640 196 760 164" stroke="#F5F1E8" stroke-opacity="0.2" stroke-width="2" />
    <path d="M40 180C200 142 340 156 460 214C580 272 700 278 800 246" stroke="#D4AF37" stroke-opacity="0.28" stroke-width="2" />
  </g>
</svg>
